<svg xmlns="http://www.w3.org/2000/svg" xmlns:xlink="http://www.w3.org/1999/xlink" width="500" zoomAndPan="magnify" viewBox="0 0 375 374.999991" height="500" preserveAspectRatio="xMidYMid meet" version="1.0"><defs><g/><clipPath id="f6a96eac8e"><path d="M 76.238281 73.648438 L 298.988281 73.648438 L 298.988281 252.144531 L 76.238281 252.144531 Z M 76.238281 73.648438 " clip-rule="nonzero"/></clipPath><clipPath id="9755867f87"><path d="M 255.160156 88.117188 L 264.0625 88.117188 L 264.0625 105.921875 L 255.160156 105.921875 Z M 255.160156 88.117188 " clip-rule="nonzero"/></clipPath><clipPath id="11c829d73e"><path d="M 255.160156 88.117188 L 264 88.117188 L 264 105.921875 L 255.160156 105.921875 Z M 255.160156 88.117188 " clip-rule="nonzero"/></clipPath><clipPath id="c4ccd385d4"><path d="M 255.160156 88.542969 C 259.832031 88.542969 263.625 92.335938 263.625 97.007812 C 263.625 101.679688 259.832031 105.476562 255.160156 105.476562 L 255.160156 105.171875 C 259.664062 105.171875 263.324219 101.511719 263.324219 97.007812 C 263.324219 92.503906 259.664062 88.84375 255.160156 88.84375 Z M 255.160156 88.542969 " clip-rule="evenodd"/></clipPath><linearGradient x1="-0.000000937695" gradientTransform="matrix(0, 17.355162, -17.355162, 0, 255.160128, 88.541288)" y1="0" x2="0.975705" gradientUnits="userSpaceOnUse" y2="0" id="f298487ea7"><stop stop-opacity="1" stop-color="rgb(59.599304%, 39.99939%, 15.299988%)" offset="0"/><stop stop-opacity="1" stop-color="rgb(59.770203%, 40.136719%, 15.306091%)" offset="0.015625"/><stop stop-opacity="1" stop-color="rgb(60.112%, 40.411377%, 15.316772%)" offset="0.03125"/><stop stop-opacity="1" stop-color="rgb(60.452271%, 40.684509%, 15.328979%)" offset="0.046875"/><stop stop-opacity="1" stop-color="rgb(60.794067%, 40.959167%, 15.341187%)" offset="0.0625"/><stop stop-opacity="1" stop-color="rgb(61.135864%, 41.233826%, 15.353394%)" offset="0.078125"/><stop stop-opacity="1" stop-color="rgb(61.477661%, 41.508484%, 15.365601%)" offset="0.09375"/><stop stop-opacity="1" stop-color="rgb(61.819458%, 41.783142%, 15.377808%)" offset="0.109375"/><stop stop-opacity="1" stop-color="rgb(62.159729%, 42.0578%, 15.390015%)" offset="0.125"/><stop stop-opacity="1" stop-color="rgb(62.501526%, 42.330933%, 15.402222%)" offset="0.140625"/><stop stop-opacity="1" stop-color="rgb(62.843323%, 42.605591%, 15.414429%)" offset="0.15625"/><stop stop-opacity="1" stop-color="rgb(63.18512%, 42.880249%, 15.426636%)" offset="0.171875"/><stop stop-opacity="1" stop-color="rgb(63.526917%, 43.154907%, 15.438843%)" offset="0.1875"/><stop stop-opacity="1" stop-color="rgb(63.867188%, 43.429565%, 15.45105%)" offset="0.203125"/><stop stop-opacity="1" stop-color="rgb(64.208984%, 43.704224%, 15.463257%)" offset="0.21875"/><stop stop-opacity="1" stop-color="rgb(64.550781%, 43.978882%, 15.475464%)" offset="0.234375"/><stop stop-opacity="1" stop-color="rgb(64.892578%, 44.252014%, 15.487671%)" offset="0.25"/><stop stop-opacity="1" stop-color="rgb(65.234375%, 44.526672%, 15.499878%)" offset="0.265625"/><stop stop-opacity="1" stop-color="rgb(65.574646%, 44.801331%, 15.512085%)" offset="0.28125"/><stop stop-opacity="1" stop-color="rgb(65.916443%, 45.075989%, 15.524292%)" offset="0.296875"/><stop stop-opacity="1" stop-color="rgb(66.25824%, 45.350647%, 15.536499%)" offset="0.3125"/><stop stop-opacity="1" stop-color="rgb(66.600037%, 45.625305%, 15.548706%)" offset="0.328125"/><stop stop-opacity="1" stop-color="rgb(66.941833%, 45.898438%, 15.560913%)" offset="0.34375"/><stop stop-opacity="1" stop-color="rgb(67.282104%, 46.173096%, 15.57312%)" offset="0.359375"/><stop stop-opacity="1" stop-color="rgb(67.623901%, 46.447754%, 15.585327%)" offset="0.375"/><stop stop-opacity="1" stop-color="rgb(67.965698%, 46.722412%, 15.597534%)" offset="0.390625"/><stop stop-opacity="1" stop-color="rgb(68.307495%, 46.99707%, 15.609741%)" offset="0.40625"/><stop stop-opacity="1" stop-color="rgb(68.649292%, 47.271729%, 15.621948%)" offset="0.421875"/><stop stop-opacity="1" stop-color="rgb(68.989563%, 47.544861%, 15.634155%)" offset="0.4375"/><stop stop-opacity="1" stop-color="rgb(69.33136%, 47.819519%, 15.646362%)" offset="0.453125"/><stop stop-opacity="1" stop-color="rgb(69.673157%, 48.094177%, 15.658569%)" offset="0.46875"/><stop stop-opacity="1" stop-color="rgb(70.014954%, 48.368835%, 15.670776%)" offset="0.484375"/><stop stop-opacity="1" stop-color="rgb(70.35675%, 48.643494%, 15.682983%)" offset="0.5"/><stop stop-opacity="1" stop-color="rgb(70.697021%, 48.918152%, 15.69519%)" offset="0.515625"/><stop stop-opacity="1" stop-color="rgb(71.038818%, 49.19281%, 15.707397%)" offset="0.53125"/><stop stop-opacity="1" stop-color="rgb(71.380615%, 49.465942%, 15.719604%)" offset="0.546875"/><stop stop-opacity="1" stop-color="rgb(71.722412%, 49.740601%, 15.731812%)" offset="0.5625"/><stop stop-opacity="1" stop-color="rgb(72.064209%, 50.015259%, 15.744019%)" offset="0.578125"/><stop stop-opacity="1" stop-color="rgb(72.40448%, 50.289917%, 15.756226%)" offset="0.59375"/><stop stop-opacity="1" stop-color="rgb(72.746277%, 50.564575%, 15.768433%)" offset="0.609375"/><stop stop-opacity="1" stop-color="rgb(73.088074%, 50.839233%, 15.78064%)" offset="0.625"/><stop stop-opacity="1" stop-color="rgb(73.429871%, 51.112366%, 15.792847%)" offset="0.640625"/><stop stop-opacity="1" stop-color="rgb(73.771667%, 51.387024%, 15.805054%)" offset="0.65625"/><stop stop-opacity="1" stop-color="rgb(74.111938%, 51.661682%, 15.817261%)" offset="0.671875"/><stop stop-opacity="1" stop-color="rgb(74.453735%, 51.93634%, 15.829468%)" offset="0.6875"/><stop stop-opacity="1" stop-color="rgb(74.795532%, 52.210999%, 15.841675%)" offset="0.703125"/><stop stop-opacity="1" stop-color="rgb(75.137329%, 52.485657%, 15.853882%)" offset="0.71875"/><stop stop-opacity="1" stop-color="rgb(75.479126%, 52.758789%, 15.866089%)" offset="0.734375"/><stop stop-opacity="1" stop-color="rgb(75.820923%, 53.033447%, 15.878296%)" offset="0.75"/><stop stop-opacity="1" stop-color="rgb(76.161194%, 53.308105%, 15.890503%)" offset="0.765625"/><stop stop-opacity="1" stop-color="rgb(76.502991%, 53.582764%, 15.90271%)" offset="0.78125"/><stop stop-opacity="1" stop-color="rgb(76.844788%, 53.857422%, 15.914917%)" offset="0.796875"/><stop stop-opacity="1" stop-color="rgb(77.186584%, 54.13208%, 15.927124%)" offset="0.8125"/><stop stop-opacity="1" stop-color="rgb(77.528381%, 54.406738%, 15.939331%)" offset="0.828125"/><stop stop-opacity="1" stop-color="rgb(77.868652%, 54.679871%, 15.951538%)" offset="0.84375"/><stop stop-opacity="1" stop-color="rgb(78.210449%, 54.954529%, 15.963745%)" offset="0.859375"/><stop stop-opacity="1" stop-color="rgb(78.552246%, 55.229187%, 15.975952%)" offset="0.875"/><stop stop-opacity="1" stop-color="rgb(78.894043%, 55.503845%, 15.988159%)" offset="0.890625"/><stop stop-opacity="1" stop-color="rgb(79.23584%, 55.778503%, 16.000366%)" offset="0.90625"/><stop stop-opacity="1" stop-color="rgb(79.576111%, 56.053162%, 16.012573%)" offset="0.921875"/><stop stop-opacity="1" stop-color="rgb(79.917908%, 56.326294%, 16.02478%)" offset="0.9375"/><stop stop-opacity="1" stop-color="rgb(80.259705%, 56.600952%, 16.036987%)" offset="0.953125"/><stop stop-opacity="1" stop-color="rgb(80.601501%, 56.87561%, 16.049194%)" offset="0.96875"/><stop stop-opacity="1" stop-color="rgb(80.943298%, 57.150269%, 16.061401%)" offset="0.984375"/><stop stop-opacity="1" stop-color="rgb(81.283569%, 57.424927%, 16.073608%)" offset="1"/></linearGradient><clipPath id="2cbb5c7a83"><path d="M 255.160156 90 L 262 90 L 262 104 L 255.160156 104 Z M 255.160156 90 " clip-rule="nonzero"/></clipPath><clipPath id="0f1d4edd56"><path d="M 246.722656 88.117188 L 255.609375 88.117188 L 255.609375 105.921875 L 246.722656 105.921875 Z M 246.722656 88.117188 " clip-rule="nonzero"/></clipPath><clipPath id="d3ed0b6f47"><path d="M 247 88.117188 L 255.609375 88.117188 L 255.609375 105.921875 L 247 105.921875 Z M 247 88.117188 " clip-rule="nonzero"/></clipPath><clipPath id="cc28c141b8"><path d="M 255.609375 88.542969 C 250.9375 88.542969 247.144531 92.335938 247.144531 97.007812 C 247.144531 101.679688 250.9375 105.476562 255.609375 105.476562 L 255.609375 105.171875 C 251.105469 105.171875 247.445312 101.511719 247.445312 97.007812 C 247.445312 92.503906 251.105469 88.84375 255.609375 88.84375 Z M 255.609375 88.542969 " clip-rule="evenodd"/></clipPath><linearGradient x1="-0.000000937695" gradientTransform="matrix(0, 17.355162, 17.355162, 0, 255.609728, 88.541288)" y1="0" x2="0.975705" gradientUnits="userSpaceOnUse" y2="0" id="424758a344"><stop stop-opacity="1" stop-color="rgb(59.599304%, 39.99939%, 15.299988%)" offset="0"/><stop stop-opacity="1" stop-color="rgb(59.770203%, 40.136719%, 15.306091%)" offset="0.015625"/><stop stop-opacity="1" stop-color="rgb(60.112%, 40.411377%, 15.316772%)" offset="0.03125"/><stop stop-opacity="1" stop-color="rgb(60.452271%, 40.684509%, 15.328979%)" offset="0.046875"/><stop stop-opacity="1" stop-color="rgb(60.794067%, 40.959167%, 15.341187%)" offset="0.0625"/><stop stop-opacity="1" stop-color="rgb(61.135864%, 41.233826%, 15.353394%)" offset="0.078125"/><stop stop-opacity="1" stop-color="rgb(61.477661%, 41.508484%, 15.365601%)" offset="0.09375"/><stop stop-opacity="1" stop-color="rgb(61.819458%, 41.783142%, 15.377808%)" offset="0.109375"/><stop stop-opacity="1" stop-color="rgb(62.159729%, 42.0578%, 15.390015%)" offset="0.125"/><stop stop-opacity="1" stop-color="rgb(62.501526%, 42.330933%, 15.402222%)" offset="0.140625"/><stop stop-opacity="1" stop-color="rgb(62.843323%, 42.605591%, 15.414429%)" offset="0.15625"/><stop stop-opacity="1" stop-color="rgb(63.18512%, 42.880249%, 15.426636%)" offset="0.171875"/><stop stop-opacity="1" stop-color="rgb(63.526917%, 43.154907%, 15.438843%)" offset="0.1875"/><stop stop-opacity="1" stop-color="rgb(63.867188%, 43.429565%, 15.45105%)" offset="0.203125"/><stop stop-opacity="1" stop-color="rgb(64.208984%, 43.704224%, 15.463257%)" offset="0.21875"/><stop stop-opacity="1" stop-color="rgb(64.550781%, 43.978882%, 15.475464%)" offset="0.234375"/><stop stop-opacity="1" stop-color="rgb(64.892578%, 44.252014%, 15.487671%)" offset="0.25"/><stop stop-opacity="1" stop-color="rgb(65.234375%, 44.526672%, 15.499878%)" offset="0.265625"/><stop stop-opacity="1" stop-color="rgb(65.574646%, 44.801331%, 15.512085%)" offset="0.28125"/><stop stop-opacity="1" stop-color="rgb(65.916443%, 45.075989%, 15.524292%)" offset="0.296875"/><stop stop-opacity="1" stop-color="rgb(66.25824%, 45.350647%, 15.536499%)" offset="0.3125"/><stop stop-opacity="1" stop-color="rgb(66.600037%, 45.625305%, 15.548706%)" offset="0.328125"/><stop stop-opacity="1" stop-color="rgb(66.941833%, 45.898438%, 15.560913%)" offset="0.34375"/><stop stop-opacity="1" stop-color="rgb(67.282104%, 46.173096%, 15.57312%)" offset="0.359375"/><stop stop-opacity="1" stop-color="rgb(67.623901%, 46.447754%, 15.585327%)" offset="0.375"/><stop stop-opacity="1" stop-color="rgb(67.965698%, 46.722412%, 15.597534%)" offset="0.390625"/><stop stop-opacity="1" stop-color="rgb(68.307495%, 46.99707%, 15.609741%)" offset="0.40625"/><stop stop-opacity="1" stop-color="rgb(68.649292%, 47.271729%, 15.621948%)" offset="0.421875"/><stop stop-opacity="1" stop-color="rgb(68.989563%, 47.544861%, 15.634155%)" offset="0.4375"/><stop stop-opacity="1" stop-color="rgb(69.33136%, 47.819519%, 15.646362%)" offset="0.453125"/><stop stop-opacity="1" stop-color="rgb(69.673157%, 48.094177%, 15.658569%)" offset="0.46875"/><stop stop-opacity="1" stop-color="rgb(70.014954%, 48.368835%, 15.670776%)" offset="0.484375"/><stop stop-opacity="1" stop-color="rgb(70.35675%, 48.643494%, 15.682983%)" offset="0.5"/><stop stop-opacity="1" stop-color="rgb(70.697021%, 48.918152%, 15.69519%)" offset="0.515625"/><stop stop-opacity="1" stop-color="rgb(71.038818%, 49.19281%, 15.707397%)" offset="0.53125"/><stop stop-opacity="1" stop-color="rgb(71.380615%, 49.465942%, 15.719604%)" offset="0.546875"/><stop stop-opacity="1" stop-color="rgb(71.722412%, 49.740601%, 15.731812%)" offset="0.5625"/><stop stop-opacity="1" stop-color="rgb(72.064209%, 50.015259%, 15.744019%)" offset="0.578125"/><stop stop-opacity="1" stop-color="rgb(72.40448%, 50.289917%, 15.756226%)" offset="0.59375"/><stop stop-opacity="1" stop-color="rgb(72.746277%, 50.564575%, 15.768433%)" offset="0.609375"/><stop stop-opacity="1" stop-color="rgb(73.088074%, 50.839233%, 15.78064%)" offset="0.625"/><stop stop-opacity="1" stop-color="rgb(73.429871%, 51.112366%, 15.792847%)" offset="0.640625"/><stop stop-opacity="1" stop-color="rgb(73.771667%, 51.387024%, 15.805054%)" offset="0.65625"/><stop stop-opacity="1" stop-color="rgb(74.111938%, 51.661682%, 15.817261%)" offset="0.671875"/><stop stop-opacity="1" stop-color="rgb(74.453735%, 51.93634%, 15.829468%)" offset="0.6875"/><stop stop-opacity="1" stop-color="rgb(74.795532%, 52.210999%, 15.841675%)" offset="0.703125"/><stop stop-opacity="1" stop-color="rgb(75.137329%, 52.485657%, 15.853882%)" offset="0.71875"/><stop stop-opacity="1" stop-color="rgb(75.479126%, 52.758789%, 15.866089%)" offset="0.734375"/><stop stop-opacity="1" stop-color="rgb(75.820923%, 53.033447%, 15.878296%)" offset="0.75"/><stop stop-opacity="1" stop-color="rgb(76.161194%, 53.308105%, 15.890503%)" offset="0.765625"/><stop stop-opacity="1" stop-color="rgb(76.502991%, 53.582764%, 15.90271%)" offset="0.78125"/><stop stop-opacity="1" stop-color="rgb(76.844788%, 53.857422%, 15.914917%)" offset="0.796875"/><stop stop-opacity="1" stop-color="rgb(77.186584%, 54.13208%, 15.927124%)" offset="0.8125"/><stop stop-opacity="1" stop-color="rgb(77.528381%, 54.406738%, 15.939331%)" offset="0.828125"/><stop stop-opacity="1" stop-color="rgb(77.868652%, 54.679871%, 15.951538%)" offset="0.84375"/><stop stop-opacity="1" stop-color="rgb(78.210449%, 54.954529%, 15.963745%)" offset="0.859375"/><stop stop-opacity="1" stop-color="rgb(78.552246%, 55.229187%, 15.975952%)" offset="0.875"/><stop stop-opacity="1" stop-color="rgb(78.894043%, 55.503845%, 15.988159%)" offset="0.890625"/><stop stop-opacity="1" stop-color="rgb(79.23584%, 55.778503%, 16.000366%)" offset="0.90625"/><stop stop-opacity="1" stop-color="rgb(79.576111%, 56.053162%, 16.012573%)" offset="0.921875"/><stop stop-opacity="1" stop-color="rgb(79.917908%, 56.326294%, 16.02478%)" offset="0.9375"/><stop stop-opacity="1" stop-color="rgb(80.259705%, 56.600952%, 16.036987%)" offset="0.953125"/><stop stop-opacity="1" stop-color="rgb(80.601501%, 56.87561%, 16.049194%)" offset="0.96875"/><stop stop-opacity="1" stop-color="rgb(80.943298%, 57.150269%, 16.061401%)" offset="0.984375"/><stop stop-opacity="1" stop-color="rgb(81.283569%, 57.424927%, 16.073608%)" offset="1"/></linearGradient><clipPath id="1df1778c41"><path d="M 249 90 L 255.609375 90 L 255.609375 104 L 249 104 Z M 249 90 " clip-rule="nonzero"/></clipPath><clipPath id="141f7e753a"><path d="M 119.386719 88.117188 L 128.289062 88.117188 L 128.289062 105.921875 L 119.386719 105.921875 Z M 119.386719 88.117188 " clip-rule="nonzero"/></clipPath><clipPath id="a3a9f8fabf"><path d="M 119.386719 88.117188 L 128 88.117188 L 128 105.921875 L 119.386719 105.921875 Z M 119.386719 88.117188 " clip-rule="nonzero"/></clipPath><clipPath id="4b277df0b6"><path d="M 119.386719 88.542969 C 124.0625 88.542969 127.855469 92.335938 127.855469 97.007812 C 127.855469 101.679688 124.0625 105.476562 119.386719 105.476562 L 119.386719 105.171875 C 123.894531 105.171875 127.550781 101.511719 127.550781 97.007812 C 127.550781 92.503906 123.894531 88.84375 119.386719 88.84375 Z M 119.386719 88.542969 " clip-rule="evenodd"/></clipPath><linearGradient x1="-0.000000937695" gradientTransform="matrix(0, 17.355162, -17.355162, 0, 119.387949, 88.541288)" y1="0" x2="0.975705" gradientUnits="userSpaceOnUse" y2="0" id="352bbd0f63"><stop stop-opacity="1" stop-color="rgb(59.599304%, 39.99939%, 15.299988%)" offset="0"/><stop stop-opacity="1" stop-color="rgb(59.770203%, 40.136719%, 15.306091%)" offset="0.015625"/><stop stop-opacity="1" stop-color="rgb(60.112%, 40.411377%, 15.316772%)" offset="0.03125"/><stop stop-opacity="1" stop-color="rgb(60.452271%, 40.684509%, 15.328979%)" offset="0.046875"/><stop stop-opacity="1" stop-color="rgb(60.794067%, 40.959167%, 15.341187%)" offset="0.0625"/><stop stop-opacity="1" stop-color="rgb(61.135864%, 41.233826%, 15.353394%)" offset="0.078125"/><stop stop-opacity="1" stop-color="rgb(61.477661%, 41.508484%, 15.365601%)" offset="0.09375"/><stop stop-opacity="1" stop-color="rgb(61.819458%, 41.783142%, 15.377808%)" offset="0.109375"/><stop stop-opacity="1" stop-color="rgb(62.159729%, 42.0578%, 15.390015%)" offset="0.125"/><stop stop-opacity="1" stop-color="rgb(62.501526%, 42.330933%, 15.402222%)" offset="0.140625"/><stop stop-opacity="1" stop-color="rgb(62.843323%, 42.605591%, 15.414429%)" offset="0.15625"/><stop stop-opacity="1" stop-color="rgb(63.18512%, 42.880249%, 15.426636%)" offset="0.171875"/><stop stop-opacity="1" stop-color="rgb(63.526917%, 43.154907%, 15.438843%)" offset="0.1875"/><stop stop-opacity="1" stop-color="rgb(63.867188%, 43.429565%, 15.45105%)" offset="0.203125"/><stop stop-opacity="1" stop-color="rgb(64.208984%, 43.704224%, 15.463257%)" offset="0.21875"/><stop stop-opacity="1" stop-color="rgb(64.550781%, 43.978882%, 15.475464%)" offset="0.234375"/><stop stop-opacity="1" stop-color="rgb(64.892578%, 44.252014%, 15.487671%)" offset="0.25"/><stop stop-opacity="1" stop-color="rgb(65.234375%, 44.526672%, 15.499878%)" offset="0.265625"/><stop stop-opacity="1" stop-color="rgb(65.574646%, 44.801331%, 15.512085%)" offset="0.28125"/><stop stop-opacity="1" stop-color="rgb(65.916443%, 45.075989%, 15.524292%)" offset="0.296875"/><stop stop-opacity="1" stop-color="rgb(66.25824%, 45.350647%, 15.536499%)" offset="0.3125"/><stop stop-opacity="1" stop-color="rgb(66.600037%, 45.625305%, 15.548706%)" offset="0.328125"/><stop stop-opacity="1" stop-color="rgb(66.941833%, 45.898438%, 15.560913%)" offset="0.34375"/><stop stop-opacity="1" stop-color="rgb(67.282104%, 46.173096%, 15.57312%)" offset="0.359375"/><stop stop-opacity="1" stop-color="rgb(67.623901%, 46.447754%, 15.585327%)" offset="0.375"/><stop stop-opacity="1" stop-color="rgb(67.965698%, 46.722412%, 15.597534%)" offset="0.390625"/><stop stop-opacity="1" stop-color="rgb(68.307495%, 46.99707%, 15.609741%)" offset="0.40625"/><stop stop-opacity="1" stop-color="rgb(68.649292%, 47.271729%, 15.621948%)" offset="0.421875"/><stop stop-opacity="1" stop-color="rgb(68.989563%, 47.544861%, 15.634155%)" offset="0.4375"/><stop stop-opacity="1" stop-color="rgb(69.33136%, 47.819519%, 15.646362%)" offset="0.453125"/><stop stop-opacity="1" stop-color="rgb(69.673157%, 48.094177%, 15.658569%)" offset="0.46875"/><stop stop-opacity="1" stop-color="rgb(70.014954%, 48.368835%, 15.670776%)" offset="0.484375"/><stop stop-opacity="1" stop-color="rgb(70.35675%, 48.643494%, 15.682983%)" offset="0.5"/><stop stop-opacity="1" stop-color="rgb(70.697021%, 48.918152%, 15.69519%)" offset="0.515625"/><stop stop-opacity="1" stop-color="rgb(71.038818%, 49.19281%, 15.707397%)" offset="0.53125"/><stop stop-opacity="1" stop-color="rgb(71.380615%, 49.465942%, 15.719604%)" offset="0.546875"/><stop stop-opacity="1" stop-color="rgb(71.722412%, 49.740601%, 15.731812%)" offset="0.5625"/><stop stop-opacity="1" stop-color="rgb(72.064209%, 50.015259%, 15.744019%)" offset="0.578125"/><stop stop-opacity="1" stop-color="rgb(72.40448%, 50.289917%, 15.756226%)" offset="0.59375"/><stop stop-opacity="1" stop-color="rgb(72.746277%, 50.564575%, 15.768433%)" offset="0.609375"/><stop stop-opacity="1" stop-color="rgb(73.088074%, 50.839233%, 15.78064%)" offset="0.625"/><stop stop-opacity="1" stop-color="rgb(73.429871%, 51.112366%, 15.792847%)" offset="0.640625"/><stop stop-opacity="1" stop-color="rgb(73.771667%, 51.387024%, 15.805054%)" offset="0.65625"/><stop stop-opacity="1" stop-color="rgb(74.111938%, 51.661682%, 15.817261%)" offset="0.671875"/><stop stop-opacity="1" stop-color="rgb(74.453735%, 51.93634%, 15.829468%)" offset="0.6875"/><stop stop-opacity="1" stop-color="rgb(74.795532%, 52.210999%, 15.841675%)" offset="0.703125"/><stop stop-opacity="1" stop-color="rgb(75.137329%, 52.485657%, 15.853882%)" offset="0.71875"/><stop stop-opacity="1" stop-color="rgb(75.479126%, 52.758789%, 15.866089%)" offset="0.734375"/><stop stop-opacity="1" stop-color="rgb(75.820923%, 53.033447%, 15.878296%)" offset="0.75"/><stop stop-opacity="1" stop-color="rgb(76.161194%, 53.308105%, 15.890503%)" offset="0.765625"/><stop stop-opacity="1" stop-color="rgb(76.502991%, 53.582764%, 15.90271%)" offset="0.78125"/><stop stop-opacity="1" stop-color="rgb(76.844788%, 53.857422%, 15.914917%)" offset="0.796875"/><stop stop-opacity="1" stop-color="rgb(77.186584%, 54.13208%, 15.927124%)" offset="0.8125"/><stop stop-opacity="1" stop-color="rgb(77.528381%, 54.406738%, 15.939331%)" offset="0.828125"/><stop stop-opacity="1" stop-color="rgb(77.868652%, 54.679871%, 15.951538%)" offset="0.84375"/><stop stop-opacity="1" stop-color="rgb(78.210449%, 54.954529%, 15.963745%)" offset="0.859375"/><stop stop-opacity="1" stop-color="rgb(78.552246%, 55.229187%, 15.975952%)" offset="0.875"/><stop stop-opacity="1" stop-color="rgb(78.894043%, 55.503845%, 15.988159%)" offset="0.890625"/><stop stop-opacity="1" stop-color="rgb(79.23584%, 55.778503%, 16.000366%)" offset="0.90625"/><stop stop-opacity="1" stop-color="rgb(79.576111%, 56.053162%, 16.012573%)" offset="0.921875"/><stop stop-opacity="1" stop-color="rgb(79.917908%, 56.326294%, 16.02478%)" offset="0.9375"/><stop stop-opacity="1" stop-color="rgb(80.259705%, 56.600952%, 16.036987%)" offset="0.953125"/><stop stop-opacity="1" stop-color="rgb(80.601501%, 56.87561%, 16.049194%)" offset="0.96875"/><stop stop-opacity="1" stop-color="rgb(80.943298%, 57.150269%, 16.061401%)" offset="0.984375"/><stop stop-opacity="1" stop-color="rgb(81.283569%, 57.424927%, 16.073608%)" offset="1"/></linearGradient><clipPath id="c694f49f8f"><path d="M 119.386719 90 L 126 90 L 126 104 L 119.386719 104 Z M 119.386719 90 " clip-rule="nonzero"/></clipPath><clipPath id="528ec42c08"><path d="M 110.949219 88.117188 L 119.835938 88.117188 L 119.835938 105.921875 L 110.949219 105.921875 Z M 110.949219 88.117188 " clip-rule="nonzero"/></clipPath><clipPath id="012d846ce6"><path d="M 111 88.117188 L 119.835938 88.117188 L 119.835938 105.921875 L 111 105.921875 Z M 111 88.117188 " clip-rule="nonzero"/></clipPath><clipPath id="37f54e6e91"><path d="M 119.835938 88.542969 C 115.164062 88.542969 111.371094 92.335938 111.371094 97.007812 C 111.371094 101.679688 115.164062 105.476562 119.835938 105.476562 L 119.835938 105.171875 C 115.332031 105.171875 111.675781 101.511719 111.675781 97.007812 C 111.675781 92.503906 115.332031 88.84375 119.835938 88.84375 Z M 119.835938 88.542969 " clip-rule="evenodd"/></clipPath><linearGradient x1="-0.000000937695" gradientTransform="matrix(0, 17.355162, 17.355162, 0, 119.837542, 88.541288)" y1="0" x2="0.975705" gradientUnits="userSpaceOnUse" y2="0" id="a9ad5aad5c"><stop stop-opacity="1" stop-color="rgb(59.599304%, 39.99939%, 15.299988%)" offset="0"/><stop stop-opacity="1" stop-color="rgb(59.770203%, 40.136719%, 15.306091%)" offset="0.015625"/><stop stop-opacity="1" stop-color="rgb(60.112%, 40.411377%, 15.316772%)" offset="0.03125"/><stop stop-opacity="1" stop-color="rgb(60.452271%, 40.684509%, 15.328979%)" offset="0.046875"/><stop stop-opacity="1" stop-color="rgb(60.794067%, 40.959167%, 15.341187%)" offset="0.0625"/><stop stop-opacity="1" stop-color="rgb(61.135864%, 41.233826%, 15.353394%)" offset="0.078125"/><stop stop-opacity="1" stop-color="rgb(61.477661%, 41.508484%, 15.365601%)" offset="0.09375"/><stop stop-opacity="1" stop-color="rgb(61.819458%, 41.783142%, 15.377808%)" offset="0.109375"/><stop stop-opacity="1" stop-color="rgb(62.159729%, 42.0578%, 15.390015%)" offset="0.125"/><stop stop-opacity="1" stop-color="rgb(62.501526%, 42.330933%, 15.402222%)" offset="0.140625"/><stop stop-opacity="1" stop-color="rgb(62.843323%, 42.605591%, 15.414429%)" offset="0.15625"/><stop stop-opacity="1" stop-color="rgb(63.18512%, 42.880249%, 15.426636%)" offset="0.171875"/><stop stop-opacity="1" stop-color="rgb(63.526917%, 43.154907%, 15.438843%)" offset="0.1875"/><stop stop-opacity="1" stop-color="rgb(63.867188%, 43.429565%, 15.45105%)" offset="0.203125"/><stop stop-opacity="1" stop-color="rgb(64.208984%, 43.704224%, 15.463257%)" offset="0.21875"/><stop stop-opacity="1" stop-color="rgb(64.550781%, 43.978882%, 15.475464%)" offset="0.234375"/><stop stop-opacity="1" stop-color="rgb(64.892578%, 44.252014%, 15.487671%)" offset="0.25"/><stop stop-opacity="1" stop-color="rgb(65.234375%, 44.526672%, 15.499878%)" offset="0.265625"/><stop stop-opacity="1" stop-color="rgb(65.574646%, 44.801331%, 15.512085%)" offset="0.28125"/><stop stop-opacity="1" stop-color="rgb(65.916443%, 45.075989%, 15.524292%)" offset="0.296875"/><stop stop-opacity="1" stop-color="rgb(66.25824%, 45.350647%, 15.536499%)" offset="0.3125"/><stop stop-opacity="1" stop-color="rgb(66.600037%, 45.625305%, 15.548706%)" offset="0.328125"/><stop stop-opacity="1" stop-color="rgb(66.941833%, 45.898438%, 15.560913%)" offset="0.34375"/><stop stop-opacity="1" stop-color="rgb(67.282104%, 46.173096%, 15.57312%)" offset="0.359375"/><stop stop-opacity="1" stop-color="rgb(67.623901%, 46.447754%, 15.585327%)" offset="0.375"/><stop stop-opacity="1" stop-color="rgb(67.965698%, 46.722412%, 15.597534%)" offset="0.390625"/><stop stop-opacity="1" stop-color="rgb(68.307495%, 46.99707%, 15.609741%)" offset="0.40625"/><stop stop-opacity="1" stop-color="rgb(68.649292%, 47.271729%, 15.621948%)" offset="0.421875"/><stop stop-opacity="1" stop-color="rgb(68.989563%, 47.544861%, 15.634155%)" offset="0.4375"/><stop stop-opacity="1" stop-color="rgb(69.33136%, 47.819519%, 15.646362%)" offset="0.453125"/><stop stop-opacity="1" stop-color="rgb(69.673157%, 48.094177%, 15.658569%)" offset="0.46875"/><stop stop-opacity="1" stop-color="rgb(70.014954%, 48.368835%, 15.670776%)" offset="0.484375"/><stop stop-opacity="1" stop-color="rgb(70.35675%, 48.643494%, 15.682983%)" offset="0.5"/><stop stop-opacity="1" stop-color="rgb(70.697021%, 48.918152%, 15.69519%)" offset="0.515625"/><stop stop-opacity="1" stop-color="rgb(71.038818%, 49.19281%, 15.707397%)" offset="0.53125"/><stop stop-opacity="1" stop-color="rgb(71.380615%, 49.465942%, 15.719604%)" offset="0.546875"/><stop stop-opacity="1" stop-color="rgb(71.722412%, 49.740601%, 15.731812%)" offset="0.5625"/><stop stop-opacity="1" stop-color="rgb(72.064209%, 50.015259%, 15.744019%)" offset="0.578125"/><stop stop-opacity="1" stop-color="rgb(72.40448%, 50.289917%, 15.756226%)" offset="0.59375"/><stop stop-opacity="1" stop-color="rgb(72.746277%, 50.564575%, 15.768433%)" offset="0.609375"/><stop stop-opacity="1" stop-color="rgb(73.088074%, 50.839233%, 15.78064%)" offset="0.625"/><stop stop-opacity="1" stop-color="rgb(73.429871%, 51.112366%, 15.792847%)" offset="0.640625"/><stop stop-opacity="1" stop-color="rgb(73.771667%, 51.387024%, 15.805054%)" offset="0.65625"/><stop stop-opacity="1" stop-color="rgb(74.111938%, 51.661682%, 15.817261%)" offset="0.671875"/><stop stop-opacity="1" stop-color="rgb(74.453735%, 51.93634%, 15.829468%)" offset="0.6875"/><stop stop-opacity="1" stop-color="rgb(74.795532%, 52.210999%, 15.841675%)" offset="0.703125"/><stop stop-opacity="1" stop-color="rgb(75.137329%, 52.485657%, 15.853882%)" offset="0.71875"/><stop stop-opacity="1" stop-color="rgb(75.479126%, 52.758789%, 15.866089%)" offset="0.734375"/><stop stop-opacity="1" stop-color="rgb(75.820923%, 53.033447%, 15.878296%)" offset="0.75"/><stop stop-opacity="1" stop-color="rgb(76.161194%, 53.308105%, 15.890503%)" offset="0.765625"/><stop stop-opacity="1" stop-color="rgb(76.502991%, 53.582764%, 15.90271%)" offset="0.78125"/><stop stop-opacity="1" stop-color="rgb(76.844788%, 53.857422%, 15.914917%)" offset="0.796875"/><stop stop-opacity="1" stop-color="rgb(77.186584%, 54.13208%, 15.927124%)" offset="0.8125"/><stop stop-opacity="1" stop-color="rgb(77.528381%, 54.406738%, 15.939331%)" offset="0.828125"/><stop stop-opacity="1" stop-color="rgb(77.868652%, 54.679871%, 15.951538%)" offset="0.84375"/><stop stop-opacity="1" stop-color="rgb(78.210449%, 54.954529%, 15.963745%)" offset="0.859375"/><stop stop-opacity="1" stop-color="rgb(78.552246%, 55.229187%, 15.975952%)" offset="0.875"/><stop stop-opacity="1" stop-color="rgb(78.894043%, 55.503845%, 15.988159%)" offset="0.890625"/><stop stop-opacity="1" stop-color="rgb(79.23584%, 55.778503%, 16.000366%)" offset="0.90625"/><stop stop-opacity="1" stop-color="rgb(79.576111%, 56.053162%, 16.012573%)" offset="0.921875"/><stop stop-opacity="1" stop-color="rgb(79.917908%, 56.326294%, 16.02478%)" offset="0.9375"/><stop stop-opacity="1" stop-color="rgb(80.259705%, 56.600952%, 16.036987%)" offset="0.953125"/><stop stop-opacity="1" stop-color="rgb(80.601501%, 56.87561%, 16.049194%)" offset="0.96875"/><stop stop-opacity="1" stop-color="rgb(80.943298%, 57.150269%, 16.061401%)" offset="0.984375"/><stop stop-opacity="1" stop-color="rgb(81.283569%, 57.424927%, 16.073608%)" offset="1"/></linearGradient><clipPath id="7fa81a7430"><path d="M 113 90 L 119.835938 90 L 119.835938 104 L 113 104 Z M 113 90 " clip-rule="nonzero"/></clipPath></defs><path fill="#722e17" d="M 180.105469 106.675781 C 179.835938 107.078125 179.613281 107.5 179.390625 107.921875 C 179.058594 107.742188 178.726562 107.566406 178.371094 107.433594 C 178.28125 107.386719 178.167969 107.34375 178.082031 107.296875 C 176.078125 106.542969 174.035156 106.496094 171.609375 107.253906 C 168.917969 108.121094 166.808594 109.988281 165.605469 112.300781 C 164.40625 114.613281 164.09375 117.414062 164.9375 120.105469 C 166.273438 124.265625 169.476562 127.644531 173.65625 130.601562 C 177.503906 133.359375 182.148438 135.738281 186.773438 138.140625 C 188.242188 138.894531 190.066406 138.316406 190.820312 136.851562 C 193.222656 132.226562 195.601562 127.601562 197.179688 123.109375 C 198.871094 118.28125 199.539062 113.65625 198.226562 109.5 C 197.359375 106.808594 195.492188 104.695312 193.179688 103.496094 C 190.867188 102.296875 188.066406 101.984375 185.375 102.828125 C 182.949219 103.652344 181.28125 104.875 180.105469 106.675781 Z M 184.039062 113.414062 C 184.285156 111.902344 184.597656 110.765625 185.105469 109.988281 L 185.105469 109.96875 C 185.507812 109.34375 186.175781 108.898438 187.175781 108.589844 C 188.285156 108.234375 189.441406 108.367188 190.398438 108.878906 C 191.355469 109.367188 192.132812 110.234375 192.488281 111.34375 C 193.355469 114.082031 192.777344 117.460938 191.488281 121.152344 C 190.355469 124.375 188.664062 127.890625 186.839844 131.425781 C 183.328125 129.578125 179.925781 127.710938 177.125 125.710938 C 173.945312 123.441406 171.519531 121.019531 170.652344 118.28125 C 170.296875 117.171875 170.429688 116.015625 170.941406 115.058594 C 171.433594 114.101562 172.300781 113.324219 173.410156 112.96875 C 174.433594 112.636719 175.234375 112.636719 175.921875 112.902344 L 176.078125 112.96875 C 176.902344 113.347656 177.8125 114.101562 178.859375 115.171875 C 180.015625 116.371094 181.925781 116.394531 183.105469 115.238281 C 183.660156 114.746094 183.949219 114.082031 184.039062 113.414062 Z M 184.039062 113.414062 " fill-opacity="1" fill-rule="evenodd"/><g clip-path="url(#f6a96eac8e)"><path fill="#722e17" d="M 296.019531 196.976562 C 291.082031 196.710938 286.835938 197 283.257812 197.554688 C 281.589844 184.210938 279.878906 171.695312 278.433594 163.421875 C 277.230469 156.617188 275.140625 152.460938 272.5625 150.191406 C 270.671875 148.523438 268.601562 147.8125 266.46875 147.835938 L 266.46875 132.535156 L 266.445312 132.535156 C 266.445312 131.714844 266.046875 130.890625 265.3125 130.355469 L 186.351562 74.433594 C 185.464844 73.765625 184.195312 73.722656 183.238281 74.410156 L 104.433594 130.203125 C 103.613281 130.667969 103.078125 131.535156 103.078125 132.535156 L 103.078125 165.179688 C 101.8125 169.515625 101.03125 173.117188 100.589844 175.429688 L 100.210938 175.40625 C 98.566406 175.339844 96.785156 175.207031 95.117188 175.097656 C 92.960938 174.941406 90.980469 174.808594 89.003906 174.785156 C 81.199219 174.628906 76.460938 176.253906 76.328125 184.878906 C 76.238281 190.617188 77.820312 200.578125 81.21875 209.585938 C 83.800781 216.410156 87.46875 222.792969 92.339844 226.640625 C 93.226562 227.351562 94.183594 227.996094 95.140625 228.617188 C 93.09375 230.953125 91.226562 234.933594 91.558594 241.691406 C 91.78125 245.941406 93.363281 248.765625 95.605469 250.453125 C 97.121094 251.589844 98.875 252.167969 100.675781 252.300781 C 102.367188 252.410156 104.125 252.121094 105.746094 251.5 C 106.792969 251.097656 107.792969 250.542969 108.703125 249.875 L 263.824219 249.875 C 265.289062 249.875 266.492188 248.675781 266.492188 247.207031 L 266.492188 237.203125 C 266.492188 235.734375 265.289062 234.53125 263.824219 234.53125 C 262.355469 234.53125 261.152344 235.734375 261.152344 237.203125 L 261.152344 244.539062 L 112.574219 244.539062 C 113.375 241.738281 114.597656 239.667969 116.351562 237.890625 C 118.199219 236.046875 120.734375 234.421875 124.089844 232.644531 C 126.894531 231.707031 129.449219 230.332031 131.605469 228.507812 C 135.742188 224.992188 139.945312 220.058594 143.460938 215.1875 C 146.4375 211.074219 148.929688 206.960938 150.484375 203.804688 C 150.839844 204.382812 150.996094 204.757812 150.996094 204.757812 C 151.597656 206.183594 153.242188 206.847656 154.667969 206.25 C 156.089844 205.648438 156.757812 204.003906 156.15625 202.578125 C 156.15625 202.558594 153.132812 195.488281 144.859375 192.261719 C 143.414062 191.707031 141.792969 192.417969 141.234375 193.863281 C 140.679688 195.308594 141.390625 196.933594 142.835938 197.488281 C 144.191406 198.019531 145.347656 198.667969 146.328125 199.355469 C 145.328125 202.089844 142.523438 206.914062 138.921875 211.898438 C 135.65625 216.410156 131.761719 220.992188 128.003906 224.191406 C 126.359375 225.59375 124.378906 226.640625 122.203125 227.351562 L 122.089844 227.394531 C 119.265625 228.308594 116.109375 228.640625 112.882812 228.484375 C 112.105469 228.441406 111.351562 228.375 110.570312 228.261719 C 110.503906 228.195312 110.4375 228.128906 110.371094 228.085938 C 104.835938 222.480469 102.65625 213.230469 101.8125 207.070312 C 116.019531 204.648438 116.019531 190.640625 114.753906 182.410156 C 123.492188 183.546875 131.183594 184.878906 131.207031 184.902344 C 132.71875 185.167969 134.1875 184.167969 134.453125 182.632812 C 134.71875 181.121094 133.71875 179.65625 132.183594 179.386719 C 132.140625 179.386719 118.132812 176.917969 106.214844 175.828125 C 106.992188 171.9375 108.683594 164.933594 111.773438 156.953125 C 113.996094 151.214844 118.976562 146.257812 125.671875 143.144531 C 132.074219 140.164062 139.992188 138.875 148.574219 140.117188 C 164.917969 142.519531 174.300781 164.066406 175.277344 166.425781 C 175.679688 167.714844 176.992188 168.558594 178.371094 168.359375 C 178.390625 168.359375 182.726562 167.667969 186.019531 170.046875 C 179.769531 180.5 174.054688 191.996094 170.742188 202.511719 C 167.5625 212.585938 164.804688 224.660156 172.320312 233.554688 C 175.679688 237.535156 182.128906 240.425781 188.265625 240.847656 C 190.421875 241.003906 192.578125 240.847656 194.558594 240.359375 C 196.667969 239.824219 198.605469 238.914062 200.226562 237.535156 C 202.761719 235.378906 204.476562 232.21875 204.785156 227.839844 C 205.253906 221.101562 203.917969 210.761719 201.917969 200.644531 C 199.382812 187.726562 195.734375 174.960938 193.511719 170.492188 C 193.335938 170.136719 193.15625 169.804688 192.957031 169.46875 C 194.601562 166.824219 196.292969 164.246094 197.960938 161.820312 C 206.03125 150.035156 213.523438 141.34375 216.480469 140.273438 C 222.242188 142.742188 224.199219 159.285156 224.265625 159.863281 C 224.398438 161.085938 225.308594 162.109375 226.578125 162.332031 L 250.949219 166.511719 C 252.394531 166.800781 253.816406 165.914062 254.195312 164.488281 C 254.707031 162.597656 257.863281 158.195312 261.6875 155.441406 C 263.109375 154.417969 264.578125 153.660156 265.914062 153.484375 C 266.957031 153.328125 268.003906 153.570312 268.914062 154.371094 C 270.558594 155.839844 272.003906 158.929688 272.960938 164.378906 C 274.429688 172.71875 276.140625 185.324219 277.808594 198.734375 C 271.425781 200.488281 268.382812 202.890625 268.359375 202.914062 C 267.136719 203.847656 266.914062 205.625 267.847656 206.847656 C 268.804688 208.070312 270.558594 208.292969 271.78125 207.359375 C 271.78125 207.359375 273.894531 205.691406 278.5 204.3125 C 278.832031 207.070312 279.164062 209.875 279.5 212.628906 C 272.871094 213.765625 269.425781 216.878906 269.402344 216.878906 C 268.246094 217.902344 268.136719 219.679688 269.160156 220.835938 C 270.183594 221.992188 271.960938 222.101562 273.117188 221.082031 C 273.117188 221.082031 275.429688 218.988281 280.144531 218.144531 C 281.613281 230.773438 282.078125 234.753906 282.167969 235.757812 C 282.480469 237.113281 283.769531 238.046875 285.167969 237.914062 C 286.703125 237.757812 287.835938 236.378906 287.683594 234.84375 C 287.660156 234.734375 288.4375 241.046875 285.746094 217.855469 C 288.171875 218.011719 290.972656 218.5 294.152344 219.523438 C 295.621094 219.992188 297.199219 219.191406 297.664062 217.722656 C 298.132812 216.253906 297.332031 214.675781 295.863281 214.1875 C 291.816406 212.875 288.238281 212.320312 285.101562 212.253906 C 284.746094 209.207031 284.367188 206.160156 284.011719 203.113281 C 287.238281 202.625 291.152344 202.359375 295.796875 202.601562 C 297.332031 202.667969 298.667969 201.492188 298.734375 199.933594 C 298.753906 198.378906 297.578125 197.042969 296.019531 196.976562 Z M 101.410156 244.496094 C 102.945312 244.648438 104.324219 243.515625 104.457031 241.960938 C 104.878906 237.734375 107.171875 235 108.683594 233.644531 C 109.859375 233.84375 111.0625 233.976562 112.238281 234.042969 C 109.859375 236.46875 108.257812 239.269531 107.171875 242.960938 C 106.96875 243.648438 106.546875 244.292969 105.96875 244.828125 C 105.679688 244.984375 105.4375 245.183594 105.214844 245.429688 C 104.746094 245.761719 104.234375 246.027344 103.703125 246.25 C 102.835938 246.585938 101.898438 246.742188 101.03125 246.671875 C 100.277344 246.628906 99.542969 246.382812 98.964844 245.941406 C 97.988281 245.183594 97.253906 243.738281 97.140625 241.402344 C 96.785156 234.378906 99.144531 232.019531 100.34375 231.285156 C 101.054688 231.574219 101.789062 231.863281 102.546875 232.109375 C 100.878906 234.332031 99.277344 237.421875 98.875 241.425781 C 98.742188 242.984375 99.875 244.339844 101.410156 244.496094 Z M 101.832031 225.839844 C 99.675781 224.882812 97.628906 223.683594 95.808594 222.238281 C 91.828125 219.101562 88.738281 213.609375 86.46875 207.628906 L 86.402344 207.472656 C 89.335938 207.628906 92.605469 207.671875 96.230469 207.539062 C 96.917969 212.585938 98.453125 219.722656 101.832031 225.839844 Z M 196.359375 201.710938 C 198.269531 211.429688 199.5625 221.257812 199.136719 227.460938 C 198.960938 230.152344 197.980469 232.042969 196.558594 233.242188 C 195.625 234.042969 194.445312 234.578125 193.132812 234.910156 C 191.710938 235.265625 190.15625 235.355469 188.574219 235.265625 C 183.839844 234.933594 178.992188 232.820312 176.546875 229.953125 C 170.855469 223.214844 173.679688 211.71875 176.035156 204.226562 C 178.992188 194.886719 183.90625 184.722656 189.398438 175.25 C 191.464844 180.589844 194.269531 191.015625 196.359375 201.710938 Z M 258.375 150.882812 C 254.707031 153.527344 251.460938 157.617188 249.792969 160.621094 L 229.492188 157.152344 C 228.601562 151.679688 225.554688 137.25 217.75 134.78125 C 217.082031 134.582031 216.371094 134.558594 215.59375 134.714844 C 211.523438 135.539062 202.363281 145.367188 193.269531 158.664062 C 191.824219 160.777344 190.355469 163 188.910156 165.269531 C 185.664062 163.089844 181.972656 162.6875 179.679688 162.6875 C 176.835938 156.550781 166.5625 137.117188 149.328125 134.582031 C 139.632812 133.160156 130.585938 134.648438 123.246094 138.074219 C 116.753906 141.097656 111.59375 145.65625 108.394531 151.035156 L 108.394531 133.894531 L 184.773438 79.835938 L 261.132812 133.894531 L 261.132812 149.214844 C 260.199219 149.679688 259.265625 150.234375 258.375 150.882812 Z M 282.078125 235.398438 C 282.101562 235.511719 282.121094 235.621094 282.144531 235.734375 C 282.210938 236.535156 282.101562 235.511719 282.078125 235.398438 Z M 124.449219 156.308594 C 127.316406 156.308594 129.652344 160.019531 129.652344 164.578125 C 129.652344 169.136719 127.316406 172.851562 124.449219 172.851562 C 121.578125 172.851562 119.246094 169.136719 119.246094 164.578125 C 119.246094 159.996094 121.578125 156.308594 124.449219 156.308594 Z M 120.042969 208.917969 C 118.511719 208.917969 117.265625 207.671875 117.265625 206.136719 C 117.265625 204.601562 118.511719 203.359375 120.042969 203.359375 C 121.578125 203.359375 122.824219 204.601562 122.824219 206.136719 C 122.824219 207.671875 121.578125 208.917969 120.042969 208.917969 Z M 148.730469 156.886719 C 151.597656 156.886719 153.933594 160.574219 153.933594 165.15625 C 153.933594 169.714844 151.597656 173.429688 148.730469 173.429688 C 145.859375 173.429688 143.527344 169.738281 143.527344 165.15625 C 143.527344 160.574219 145.859375 156.886719 148.730469 156.886719 Z M 119.824219 216.164062 C 119.824219 214.632812 121.066406 213.386719 122.601562 213.386719 C 124.136719 213.386719 125.382812 214.632812 125.382812 216.164062 C 125.382812 217.699219 124.136719 218.945312 122.601562 218.945312 C 121.066406 218.945312 119.824219 217.699219 119.824219 216.164062 Z M 229.222656 180.164062 C 229.222656 180.1875 225.777344 188.304688 228.710938 189.707031 C 231.714844 191.152344 234.359375 186.4375 234.382812 186.4375 C 235.136719 185.078125 236.851562 184.613281 238.207031 185.390625 C 239.117188 185.902344 239.628906 186.835938 239.628906 187.816406 C 239.652344 188.394531 239.964844 192.085938 243.277344 192.484375 C 246.121094 192.816406 245.945312 183.96875 245.945312 183.945312 C 245.921875 182.410156 247.144531 181.121094 248.703125 181.101562 C 250.257812 181.078125 251.527344 182.300781 251.546875 183.855469 C 251.546875 183.902344 251.859375 199.175781 242.632812 198.066406 C 238.894531 197.621094 236.785156 195.597656 235.582031 193.484375 C 233.316406 195.285156 230.136719 196.597656 226.332031 194.773438 C 218.503906 191.039062 224.066406 178.097656 224.085938 178.054688 C 224.664062 176.628906 226.308594 175.941406 227.734375 176.519531 C 229.132812 177.097656 229.800781 178.71875 229.222656 180.164062 Z M 112.328125 210.71875 C 113.863281 210.71875 115.109375 211.964844 115.109375 213.496094 C 115.109375 215.03125 113.863281 216.277344 112.328125 216.277344 C 110.792969 216.277344 109.550781 215.03125 109.550781 213.496094 C 109.550781 211.964844 110.792969 210.71875 112.328125 210.71875 Z M 266.46875 188.550781 C 265.800781 192.75 263.578125 195.886719 261.511719 195.554688 C 259.441406 195.21875 258.308594 191.550781 258.996094 187.347656 C 259.664062 183.144531 261.886719 180.011719 263.957031 180.34375 C 266.023438 180.65625 267.15625 184.347656 266.46875 188.550781 Z M 211.589844 172.09375 C 213.660156 172.429688 214.792969 176.097656 214.101562 180.300781 C 213.414062 184.5 211.210938 187.636719 209.144531 187.304688 C 207.078125 186.96875 205.941406 183.300781 206.632812 179.097656 C 207.296875 174.894531 209.523438 171.761719 211.589844 172.09375 Z M 211.589844 172.09375 " fill-opacity="1" fill-rule="nonzero"/></g><g fill="#722e17" fill-opacity="1"><g transform="translate(67.196188, 292.659329)"><g><path d="M 13.46875 -24.421875 C 15.632812 -24.421875 17.515625 -24.0625 19.109375 -23.34375 C 20.703125 -22.625 21.925781 -21.597656 22.78125 -20.265625 C 23.644531 -18.941406 24.078125 -17.375 24.078125 -15.5625 C 24.078125 -13.769531 23.644531 -12.203125 22.78125 -10.859375 C 21.925781 -9.523438 20.703125 -8.503906 19.109375 -7.796875 C 17.515625 -7.085938 15.632812 -6.734375 13.46875 -6.734375 L 8.546875 -6.734375 L 8.546875 0 L 2.890625 0 L 2.890625 -24.421875 Z M 13.15625 -11.34375 C 14.851562 -11.34375 16.144531 -11.707031 17.03125 -12.4375 C 17.914062 -13.164062 18.359375 -14.207031 18.359375 -15.5625 C 18.359375 -16.9375 17.914062 -17.988281 17.03125 -18.71875 C 16.144531 -19.445312 14.851562 -19.8125 13.15625 -19.8125 L 8.546875 -19.8125 L 8.546875 -11.34375 Z M 13.15625 -11.34375 "/></g></g></g><g fill="#722e17" fill-opacity="1"><g transform="translate(92.739039, 292.659329)"><g><path d="M 21.8125 -4.53125 L 21.8125 0 L 2.890625 0 L 2.890625 -24.421875 L 21.359375 -24.421875 L 21.359375 -19.890625 L 8.515625 -19.890625 L 8.515625 -14.578125 L 19.859375 -14.578125 L 19.859375 -10.1875 L 8.515625 -10.1875 L 8.515625 -4.53125 Z M 21.8125 -4.53125 "/></g></g></g><g fill="#722e17" fill-opacity="1"><g transform="translate(116.153317, 292.659329)"><g><path d="M 7.953125 -19.8125 L 0.140625 -19.8125 L 0.140625 -24.421875 L 21.421875 -24.421875 L 21.421875 -19.8125 L 13.609375 -19.8125 L 13.609375 0 L 7.953125 0 Z M 7.953125 -19.8125 "/></g></g></g><g fill="#722e17" fill-opacity="1"><g transform="translate(137.718183, 292.659329)"><g/></g></g><g fill="#722e17" fill-opacity="1"><g transform="translate(147.593356, 292.659329)"><g><path d="M 13.46875 -24.421875 C 15.632812 -24.421875 17.515625 -24.0625 19.109375 -23.34375 C 20.703125 -22.625 21.925781 -21.597656 22.78125 -20.265625 C 23.644531 -18.941406 24.078125 -17.375 24.078125 -15.5625 C 24.078125 -13.769531 23.644531 -12.203125 22.78125 -10.859375 C 21.925781 -9.523438 20.703125 -8.503906 19.109375 -7.796875 C 17.515625 -7.085938 15.632812 -6.734375 13.46875 -6.734375 L 8.546875 -6.734375 L 8.546875 0 L 2.890625 0 L 2.890625 -24.421875 Z M 13.15625 -11.34375 C 14.851562 -11.34375 16.144531 -11.707031 17.03125 -12.4375 C 17.914062 -13.164062 18.359375 -14.207031 18.359375 -15.5625 C 18.359375 -16.9375 17.914062 -17.988281 17.03125 -18.71875 C 16.144531 -19.445312 14.851562 -19.8125 13.15625 -19.8125 L 8.546875 -19.8125 L 8.546875 -11.34375 Z M 13.15625 -11.34375 "/></g></g></g><g fill="#722e17" fill-opacity="1"><g transform="translate(173.136207, 292.659329)"><g><path d="M 18.984375 -5.234375 L 7.640625 -5.234375 L 5.484375 0 L -0.3125 0 L 10.578125 -24.421875 L 16.15625 -24.421875 L 27.078125 0 L 21.140625 0 Z M 17.203125 -9.53125 L 13.328125 -18.875 L 9.453125 -9.53125 Z M 17.203125 -9.53125 "/></g></g></g><g fill="#722e17" fill-opacity="1"><g transform="translate(199.86547, 292.659329)"><g><path d="M 25.125 0 L 25.09375 -14.65625 L 17.90625 -2.578125 L 15.359375 -2.578125 L 8.203125 -14.34375 L 8.203125 0 L 2.890625 0 L 2.890625 -24.421875 L 7.578125 -24.421875 L 16.71875 -9.25 L 25.71875 -24.421875 L 30.359375 -24.421875 L 30.421875 0 Z M 25.125 0 "/></g></g></g><g fill="#722e17" fill-opacity="1"><g transform="translate(233.189823, 292.659329)"><g><path d="M 13.46875 -24.421875 C 15.632812 -24.421875 17.515625 -24.0625 19.109375 -23.34375 C 20.703125 -22.625 21.925781 -21.597656 22.78125 -20.265625 C 23.644531 -18.941406 24.078125 -17.375 24.078125 -15.5625 C 24.078125 -13.769531 23.644531 -12.203125 22.78125 -10.859375 C 21.925781 -9.523438 20.703125 -8.503906 19.109375 -7.796875 C 17.515625 -7.085938 15.632812 -6.734375 13.46875 -6.734375 L 8.546875 -6.734375 L 8.546875 0 L 2.890625 0 L 2.890625 -24.421875 Z M 13.15625 -11.34375 C 14.851562 -11.34375 16.144531 -11.707031 17.03125 -12.4375 C 17.914062 -13.164062 18.359375 -14.207031 18.359375 -15.5625 C 18.359375 -16.9375 17.914062 -17.988281 17.03125 -18.71875 C 16.144531 -19.445312 14.851562 -19.8125 13.15625 -19.8125 L 8.546875 -19.8125 L 8.546875 -11.34375 Z M 13.15625 -11.34375 "/></g></g></g><g fill="#722e17" fill-opacity="1"><g transform="translate(258.732674, 292.659329)"><g><path d="M 21.8125 -4.53125 L 21.8125 0 L 2.890625 0 L 2.890625 -24.421875 L 21.359375 -24.421875 L 21.359375 -19.890625 L 8.515625 -19.890625 L 8.515625 -14.578125 L 19.859375 -14.578125 L 19.859375 -10.1875 L 8.515625 -10.1875 L 8.515625 -4.53125 Z M 21.8125 -4.53125 "/></g></g></g><g fill="#722e17" fill-opacity="1"><g transform="translate(282.146945, 292.659329)"><g><path d="M 18.453125 0 L 13.75 -6.796875 L 8.546875 -6.796875 L 8.546875 0 L 2.890625 0 L 2.890625 -24.421875 L 13.46875 -24.421875 C 15.632812 -24.421875 17.515625 -24.0625 19.109375 -23.34375 C 20.703125 -22.625 21.925781 -21.597656 22.78125 -20.265625 C 23.644531 -18.941406 24.078125 -17.375 24.078125 -15.5625 C 24.078125 -13.75 23.640625 -12.179688 22.765625 -10.859375 C 21.890625 -9.546875 20.648438 -8.539062 19.046875 -7.84375 L 24.53125 0 Z M 18.359375 -15.5625 C 18.359375 -16.9375 17.914062 -17.988281 17.03125 -18.71875 C 16.144531 -19.445312 14.851562 -19.8125 13.15625 -19.8125 L 8.546875 -19.8125 L 8.546875 -11.296875 L 13.15625 -11.296875 C 14.851562 -11.296875 16.144531 -11.664062 17.03125 -12.40625 C 17.914062 -13.15625 18.359375 -14.207031 18.359375 -15.5625 Z M 18.359375 -15.5625 "/></g></g></g><g clip-path="url(#9755867f87)"><path fill="#722e17" d="M 255.160156 93.578125 L 255.160156 88.121094 C 260.066406 88.121094 264.046875 92.101562 264.046875 97.007812 C 264.046875 101.914062 260.066406 105.894531 255.160156 105.894531 L 255.160156 100.4375 C 257.050781 100.4375 258.589844 98.902344 258.589844 97.007812 C 258.589844 95.117188 257.050781 93.578125 255.160156 93.578125 Z M 255.160156 93.578125 " fill-opacity="1" fill-rule="evenodd"/></g><g clip-path="url(#11c829d73e)"><g clip-path="url(#c4ccd385d4)"><path fill="url(#f298487ea7)" d="M 263.625 88.542969 L 255.160156 88.542969 L 255.160156 105.476562 L 263.625 105.476562 Z M 263.625 88.542969 " fill-rule="nonzero"/></g></g><g clip-path="url(#2cbb5c7a83)"><path fill="#ffffff" d="M 255.160156 93.578125 L 255.160156 90.65625 C 258.664062 90.65625 261.511719 93.503906 261.511719 97.007812 C 261.511719 100.515625 258.664062 103.359375 255.160156 103.359375 L 255.160156 100.4375 C 257.050781 100.4375 258.589844 98.902344 258.589844 97.007812 C 258.589844 95.117188 257.050781 93.578125 255.160156 93.578125 Z M 255.160156 93.578125 " fill-opacity="1" fill-rule="evenodd"/></g><g clip-path="url(#0f1d4edd56)"><path fill="#722e17" d="M 255.609375 93.578125 L 255.609375 88.121094 C 250.703125 88.121094 246.722656 92.101562 246.722656 97.007812 C 246.722656 101.914062 250.703125 105.894531 255.609375 105.894531 L 255.609375 100.4375 C 253.71875 100.4375 252.179688 98.902344 252.179688 97.007812 C 252.179688 95.117188 253.71875 93.578125 255.609375 93.578125 Z M 255.609375 93.578125 " fill-opacity="1" fill-rule="evenodd"/></g><g clip-path="url(#d3ed0b6f47)"><g clip-path="url(#cc28c141b8)"><path fill="url(#424758a344)" d="M 247.144531 88.542969 L 255.609375 88.542969 L 255.609375 105.476562 L 247.144531 105.476562 Z M 247.144531 88.542969 " fill-rule="nonzero"/></g></g><g clip-path="url(#1df1778c41)"><path fill="#ffffff" d="M 255.609375 93.578125 L 255.609375 90.65625 C 252.105469 90.65625 249.257812 93.503906 249.257812 97.007812 C 249.257812 100.515625 252.105469 103.359375 255.609375 103.359375 L 255.609375 100.4375 C 253.71875 100.4375 252.179688 98.902344 252.179688 97.007812 C 252.179688 95.117188 253.71875 93.578125 255.609375 93.578125 Z M 255.609375 93.578125 " fill-opacity="1" fill-rule="evenodd"/></g><g clip-path="url(#141f7e753a)"><path fill="#722e17" d="M 119.386719 93.578125 L 119.386719 88.121094 C 124.292969 88.121094 128.277344 92.101562 128.277344 97.007812 C 128.277344 101.914062 124.292969 105.894531 119.386719 105.894531 L 119.386719 100.4375 C 121.28125 100.4375 122.816406 98.902344 122.816406 97.007812 C 122.816406 95.117188 121.28125 93.578125 119.386719 93.578125 Z M 119.386719 93.578125 " fill-opacity="1" fill-rule="evenodd"/></g><g clip-path="url(#a3a9f8fabf)"><g clip-path="url(#4b277df0b6)"><path fill="url(#352bbd0f63)" d="M 127.855469 88.542969 L 119.386719 88.542969 L 119.386719 105.476562 L 127.855469 105.476562 Z M 127.855469 88.542969 " fill-rule="nonzero"/></g></g><g clip-path="url(#c694f49f8f)"><path fill="#ffffff" d="M 119.386719 93.578125 L 119.386719 90.65625 C 122.894531 90.65625 125.738281 93.503906 125.738281 97.007812 C 125.738281 100.515625 122.894531 103.359375 119.386719 103.359375 L 119.386719 100.4375 C 121.28125 100.4375 122.816406 98.902344 122.816406 97.007812 C 122.816406 95.117188 121.28125 93.578125 119.386719 93.578125 Z M 119.386719 93.578125 " fill-opacity="1" fill-rule="evenodd"/></g><g clip-path="url(#528ec42c08)"><path fill="#722e17" d="M 119.835938 93.578125 L 119.835938 88.121094 C 114.933594 88.121094 110.949219 92.101562 110.949219 97.007812 C 110.949219 101.914062 114.933594 105.894531 119.835938 105.894531 L 119.835938 100.4375 C 117.945312 100.4375 116.410156 98.902344 116.410156 97.007812 C 116.410156 95.117188 117.945312 93.578125 119.835938 93.578125 Z M 119.835938 93.578125 " fill-opacity="1" fill-rule="evenodd"/></g><g clip-path="url(#012d846ce6)"><g clip-path="url(#37f54e6e91)"><path fill="url(#a9ad5aad5c)" d="M 111.371094 88.542969 L 119.835938 88.542969 L 119.835938 105.476562 L 111.371094 105.476562 Z M 111.371094 88.542969 " fill-rule="nonzero"/></g></g><g clip-path="url(#7fa81a7430)"><path fill="#ffffff" d="M 119.835938 93.578125 L 119.835938 90.65625 C 116.332031 90.65625 113.484375 93.503906 113.484375 97.007812 C 113.484375 100.515625 116.332031 103.359375 119.835938 103.359375 L 119.835938 100.4375 C 117.945312 100.4375 116.410156 98.902344 116.410156 97.007812 C 116.410156 95.117188 117.945312 93.578125 119.835938 93.578125 Z M 119.835938 93.578125 " fill-opacity="1" fill-rule="evenodd"/></g></svg>